<svg xmlns="http://www.w3.org/2000/svg" viewBox="0 0 500 410" fill="currentColor">
  <path d="M30 410C30 410 20 400 20 380C20 360 25 340 35 310C55 250 90 180 130 120C170 60 210 20 240 5C260-5 280 0 290 20C310 50 320 100 340 160C350 190 365 225 385 250C400 270 420 285 440 285C455 285 465 275 472 260C478 245 480 225 478 210C476 195 470 185 460 180C445 172 425 175 410 190C395 205 385 230 385 255C385 285 400 310 425 325C450 340 485 340 485 340L480 370C480 370 440 375 405 355C370 335 345 300 345 255C345 215 365 175 395 150C425 125 465 120 495 140C525 160 540 195 540 235C540 275 525 315 495 340C465 365 420 375 380 355C340 335 310 295 290 250C270 205 255 155 240 115C230 85 215 55 200 45C190 38 178 42 165 55C140 80 110 130 85 185C60 240 40 300 30 350C25 375 25 395 30 410Z"/>
</svg>
